# xmcd
#
# Track frame offsets:
#        150
#        26123
#        42310
#        68263
#
# Disc length: 1125 seconds
#
# Revision: 0
# Processed by: cddbd v1.5.1PL0 Copyright (c) Steve Scherf et al.
# Submitted via: ExactAudioCopy v0.95a5
#
DISCID=2a046304
DTITLE=KOHMI HIROSE - Futarino Birthday
DYEAR=1993
DGENRE=JPop
TTITLE0=01
TTITLE1=02
TTITLE2=03
TTITLE3=04
EXTD=
EXTT0=
EXTT1=
EXTT2=
EXTT3=
PLAYORDER=
